<!-- Generated by IcoMoon.io -->
<svg version="1.1" xmlns="http://www.w3.org/2000/svg" width="34" height="32" viewBox="0 0 34 32">
    <title>instagram</title>
    <path fill="#fff"
        d="M16.533 2.883c4.272 0 4.779 0.016 6.467 0.094 4.336 0.197 6.362 2.254 6.56 6.558 0.077 1.686 0.091 2.192 0.091 6.464 0 4.275-0.016 4.781-0.093 6.467-0.198 4.299-2.218 6.36-6.558 6.558-1.688 0.077-2.192 0.093-6.467 0.093-4.272 0-4.778-0.016-6.464-0.093-4.347-0.198-6.362-2.266-6.56-6.56-0.077-1.686-0.093-2.192-0.093-6.466 0-4.272 0.016-4.778 0.093-6.464 0.198-4.304 2.219-6.363 6.56-6.56 1.686-0.077 2.192-0.093 6.464-0.093zM16.533 0c-4.344 0-4.888 0.019-6.595 0.096-5.811 0.267-9.042 3.491-9.307 9.307-0.078 1.707-0.096 2.251-0.096 6.597s0.018 4.891 0.096 6.597c0.266 5.811 3.49 9.040 9.306 9.307 1.709 0.077 2.253 0.096 6.597 0.096 4.346 0 4.891-0.019 6.598-0.096 5.805-0.267 9.042-3.491 9.306-9.307 0.078-1.706 0.096-2.251 0.096-6.597s-0.018-4.89-0.096-6.595c-0.261-5.806-3.488-9.040-9.304-9.309-1.709-0.080-2.254-0.096-6.6-0.096zM16.533 7.784c-4.538 0-8.216 3.678-8.216 8.216s3.678 8.216 8.216 8.216v0c4.538 0 8.216-3.678 8.216-8.216s-3.678-8.216-8.216-8.216v0zM16.533 21.333c-2.945 0-5.333-2.388-5.333-5.333s2.388-5.333 5.333-5.333v0c2.945 0 5.333 2.388 5.333 5.333s-2.388 5.333-5.333 5.333v0zM25.075 5.541c-0 0-0.001 0-0.001 0-1.060 0-1.92 0.86-1.92 1.92s0.859 1.92 1.919 1.92h0c1.060 0 1.92-0.86 1.92-1.92s-0.86-1.92-1.92-1.92v0z">
    </path>
</svg>