<svg aria-hidden="true" style="position: absolute; width: 0; height: 0; overflow: hidden;" version="1.1"
    xmlns="http://www.w3.org/2000/svg" xmlns:xlink="http://www.w3.org/1999/xlink">
    <defs>
        <symbol id="icon-instagram" viewBox="0 0 34 32">
            <path
                d="M16.533 2.883c4.272 0 4.779 0.016 6.467 0.094 4.336 0.197 6.362 2.254 6.56 6.558 0.077 1.686 0.091 2.192 0.091 6.464 0 4.275-0.016 4.781-0.093 6.467-0.198 4.299-2.218 6.36-6.558 6.558-1.688 0.077-2.192 0.093-6.467 0.093-4.272 0-4.778-0.016-6.464-0.093-4.347-0.198-6.362-2.266-6.56-6.56-0.077-1.686-0.093-2.192-0.093-6.466 0-4.272 0.016-4.778 0.093-6.464 0.198-4.304 2.219-6.363 6.56-6.56 1.686-0.077 2.192-0.093 6.464-0.093zM16.533 0c-4.344 0-4.888 0.019-6.595 0.096-5.811 0.267-9.042 3.491-9.307 9.307-0.078 1.707-0.096 2.251-0.096 6.597s0.018 4.891 0.096 6.597c0.266 5.811 3.49 9.040 9.306 9.307 1.709 0.077 2.253 0.096 6.597 0.096 4.346 0 4.891-0.019 6.598-0.096 5.805-0.267 9.042-3.491 9.306-9.307 0.078-1.706 0.096-2.251 0.096-6.597s-0.018-4.89-0.096-6.595c-0.261-5.806-3.488-9.040-9.304-9.309-1.709-0.080-2.254-0.096-6.6-0.096zM16.533 7.784c-4.538 0-8.216 3.678-8.216 8.216s3.678 8.216 8.216 8.216v0c4.538 0 8.216-3.678 8.216-8.216s-3.678-8.216-8.216-8.216v0zM16.533 21.333c-2.945 0-5.333-2.388-5.333-5.333s2.388-5.333 5.333-5.333v0c2.945 0 5.333 2.388 5.333 5.333s-2.388 5.333-5.333 5.333v0zM25.075 5.541c-0 0-0.001 0-0.001 0-1.060 0-1.92 0.86-1.92 1.92s0.859 1.92 1.919 1.92h0c1.060 0 1.92-0.86 1.92-1.92s-0.86-1.92-1.92-1.92v0z">
            </path>
        </symbol>
        <symbol id="icon-facebook" viewBox="0 0 48 48">
            <path
                d="M0 44c0 2.21 1.79 4 4 4h40c2.21 0 4-1.79 4-4l-0-40c0-2.21-1.79-4-4-4h-40c-2.21 0-4 1.79-4 4v40zM25 42v-16h-4v-6h4c0-10.31 0.439-11 13-11v6c-6.62 0-6 0.37-6 5h6v6h-6v16h-7z">
            </path>
        </symbol>
        <symbol id="icon-twitter" viewBox="0 0 20 20">
            <path
                d="M17.316 6.246c0.008 0.162 0.011 0.326 0.011 0.488 0 4.99-3.797 10.742-10.74 10.742-2.133 0-4.116-0.625-5.787-1.697 0.296 0.035 0.596 0.053 0.9 0.053 1.77 0 3.397-0.604 4.688-1.615-1.651-0.031-3.046-1.121-3.526-2.621 0.23 0.043 0.467 0.066 0.71 0.066 0.345 0 0.679-0.045 0.995-0.131-1.727-0.348-3.028-1.873-3.028-3.703 0-0.016 0-0.031 0-0.047 0.509 0.283 1.092 0.453 1.71 0.473-1.013-0.678-1.68-1.832-1.68-3.143 0-0.691 0.186-1.34 0.512-1.898 1.861 2.285 4.644 3.787 7.781 3.945-0.064-0.277-0.097-0.564-0.097-0.861 0-2.084 1.689-3.773 3.774-3.773 1.086 0 2.067 0.457 2.756 1.191 0.859-0.17 1.667-0.484 2.397-0.916-0.282 0.881-0.881 1.621-1.66 2.088 0.764-0.092 1.49-0.293 2.168-0.594-0.506 0.758-1.146 1.422-1.884 1.953z">
            </path>
        </symbol>
        <symbol id="icon-youtube" viewBox="0 0 20 20">
            <path
                d="M10 2.3c-9.828 0-10 0.874-10 7.7s0.172 7.7 10 7.7 10-0.874 10-7.7-0.172-7.7-10-7.7zM13.205 10.334l-4.49 2.096c-0.393 0.182-0.715-0.022-0.715-0.456v-3.948c0-0.433 0.322-0.638 0.715-0.456l4.49 2.096c0.393 0.184 0.393 0.484 0 0.668z">
            </path>
        </symbol>
        <symbol id="icon-pinterest2" viewBox="0 0 32 32">
            <path
                d="M16 0c-8.825 0-16 7.175-16 16s7.175 16 16 16 16-7.175 16-16-7.175-16-16-16zM16 29.863c-1.431 0-2.806-0.219-4.106-0.619 0.563-0.919 1.412-2.431 1.725-3.631 0.169-0.65 0.863-3.294 0.863-3.294 0.45 0.863 1.775 1.594 3.175 1.594 4.181 0 7.194-3.844 7.194-8.625 0-4.581-3.738-8.006-8.544-8.006-5.981 0-9.156 4.019-9.156 8.387 0 2.031 1.081 4.563 2.813 5.369 0.262 0.125 0.4 0.069 0.463-0.188 0.044-0.194 0.281-1.131 0.387-1.575 0.031-0.137 0.019-0.262-0.094-0.4-0.575-0.694-1.031-1.975-1.031-3.162 0-3.056 2.313-6.019 6.256-6.019 3.406 0 5.788 2.319 5.788 5.637 0 3.75-1.894 6.35-4.356 6.35-1.363 0-2.381-1.125-2.050-2.506 0.394-1.65 1.15-3.425 1.15-4.613 0-1.063-0.569-1.95-1.756-1.95-1.394 0-2.506 1.438-2.506 3.369 0 1.225 0.412 2.056 0.412 2.056s-1.375 5.806-1.625 6.887c-0.281 1.2-0.169 2.881-0.050 3.975-5.156-2.012-8.813-7.025-8.813-12.9 0-7.656 6.206-13.863 13.862-13.863s13.863 6.206 13.863 13.863c0 7.656-6.206 13.863-13.863 13.863z">
            </path>
        </symbol>
    </defs>
</svg>